<svg xmlns="http://www.w3.org/2000/svg" width="595.48" height="304.679" viewBox="0 0 595.48 304.679"><defs><style>.a{fill:#597fbc;}.b{fill:#2b5497;}</style></defs><g transform="translate(-701.163 -603.607)"><g transform="translate(701.163 603.607)"><path class="a" d="M772.16,680.133a8.487,8.487,0,0,0-7.445-4.522H748.021c-6.491,0-10.6,7.21-7.47,13.1l.97,1.828a8.492,8.492,0,0,0,7.473,4.571H765.7c6.515,0,10.626-7.26,7.443-13.149Z" transform="translate(-644.703 -497.507)"/><path class="a" d="M797.871,730.69l-17.5-.185a8.483,8.483,0,0,1-7.24-4.309l-39.042-67.812a8.38,8.38,0,0,0-14.572-.141l-1.051,1.751a9.112,9.112,0,0,0-.091,9.172l43.492,75.977a8.475,8.475,0,0,0,7.336,4.331h27.966a8.484,8.484,0,0,0,7.391-4.423l.621-1.113C808.433,738.081,804.4,730.759,797.871,730.69Z" transform="translate(-677.565 -529.244)"/><path class="a" d="M729.966,715.743a9.1,9.1,0,0,1,0-9.051l40.761-70.815c3.391-5.889-.708-13.359-7.326-13.359h-2.7a8.476,8.476,0,0,0-7.337,4.329l-45.609,79.682a9.111,9.111,0,0,0-.025,8.969l43,76.1a8.478,8.478,0,0,0,7.361,4.373h3.072c6.622,0,10.718-7.475,7.327-13.362Z" transform="translate(-693.215 -575.741)"/><path class="a" d="M849.86,617.241a8.48,8.48,0,0,0-7.349-4.348H755.44a8.481,8.481,0,0,0-7.354,4.356L702.341,697.8a9.105,9.105,0,0,0,.131,9.184l1.2,1.974a8.377,8.377,0,0,0,14.552-.193l41.046-71.537a8.479,8.479,0,0,1,7.334-4.321h77.243c6.6,0,10.7-7.433,7.349-13.322Z" transform="translate(-701.163 -589.924)"/><path class="a" d="M828.167,607.9a8.475,8.475,0,0,0-7.314-4.291H734a8.482,8.482,0,0,0-7.4,4.443l-.668,1.209c-3.243,5.86.806,13.169,7.329,13.226l76.813.673a8.485,8.485,0,0,1,7.275,4.346l70.54,123.872a8.477,8.477,0,0,0,7.347,4.346H898.7c6.629,0,10.725-7.49,7.317-13.379Z" transform="translate(-666.34 -603.604)"/><path class="a" d="M895.025,793.747l-.1-.2a7.22,7.22,0,0,0-.421-.891L821.388,665.915a7.16,7.16,0,0,0-1.162-1.534c0-.025,0-.025-.025-.05l-32.527-56.421a8.512,8.512,0,0,0-7.346-4.3h-1.806c-6.654,0-10.76,7.569-7.272,13.456l32.7,55.308v.025a8.1,8.1,0,0,0,1.039,2.671l58.2,98.446-21,12.912,46.824,28.124,27.6,16.572Z" transform="translate(-599.76 -603.607)"/></g><g transform="translate(951.667 670.442)"><path class="b" d="M877.392,718.625a9.321,9.321,0,0,0-1.113-1.4L857.868,687l18.972-11.675-74.4-44.7,57.905,97.81c.124.257.235.515.383.762l4.232,7.037,41.491,70.085a9.321,9.321,0,0,0,2.13,2.441l33.18,55.167a9.375,9.375,0,0,0,8.034,4.541h2.157a9.373,9.373,0,0,0,8.007-14.248Z" transform="translate(-802.437 -630.627)"/><path class="b" d="M1025.669,802.294h-83.7a9.378,9.378,0,0,1-8.046-4.564L855.335,666.255a9.372,9.372,0,0,0-8.046-4.563h-2.535A9.373,9.373,0,0,0,836.7,675.87l84.929,142.257a9.372,9.372,0,0,0,8.049,4.569h95.082a9.372,9.372,0,0,0,8.22-4.87l.908-1.655A9.374,9.374,0,0,0,1025.669,802.294Z" transform="translate(-753.917 -584.852)"/><path class="b" d="M1038.709,680.069l-.8-1.266a9.375,9.375,0,0,0-15.979.25L977.2,754.559a9.375,9.375,0,0,1-8.007,4.6l-84.651.534a9.372,9.372,0,0,0-7.975,14.2l.868,1.444a9.375,9.375,0,0,0,8.034,4.546h95.068a9.375,9.375,0,0,0,8.079-4.621l50.26-85.411A9.377,9.377,0,0,0,1038.709,680.069Z" transform="translate(-695.196 -566.045)"/><path class="b" d="M953.164,718.293a9.369,9.369,0,0,1,0,9.568l-44.2,74.495a9.374,9.374,0,0,0,8.061,14.159h2.105a9.373,9.373,0,0,0,8.071-4.608l49.889-84.486a9.373,9.373,0,0,0-.022-9.57l-48.293-80.959a9.376,9.376,0,0,0-8.051-4.571H918.6a9.374,9.374,0,0,0-8.061,14.159Z" transform="translate(-647.417 -628.131)"/><path class="b" d="M894.012,653.5l19.981-.133a9.371,9.371,0,0,1,8.125,4.593l42.651,71.915a9.374,9.374,0,0,0,16.107.03l1.373-2.3a9.375,9.375,0,0,0,.045-9.543L934.83,636.962a9.367,9.367,0,0,0-8.089-4.641H895.33a9.375,9.375,0,0,0-8.155,4.752l-1.38,2.434A9.372,9.372,0,0,0,894.012,653.5Z" transform="translate(-681.425 -628.131)"/><path class="b" d="M920.523,647.023a9.373,9.373,0,0,0-8.064-4.593H894.034a9.373,9.373,0,0,0-8.063,14.153l1.021,1.726a9.378,9.378,0,0,0,8.064,4.593h18.425a9.375,9.375,0,0,0,8.064-14.156Z" transform="translate(-681.301 -613.235)"/></g></g></svg>